<mxfile host="app.diagrams.net" modified="2024-06-10T06:41:10.452Z" agent="Mozilla/5.0 (X11; Linux x86_64) AppleWebKit/537.36 (KHTML, like Gecko) Chrome/122.0.0.0 Safari/537.36" version="24.5.2" etag="0Q41-l723up6n6nwml5H" type="github">
  <diagram name="Page-1" id="01xBQbGkDw0-51xXL2Fk">
    <mxGraphModel>
      <root>
        <mxCell id="0" />
        <mxCell id="1" parent="0" />
      </root>
    </mxGraphModel>
  </diagram>
</mxfile>
